<?xml version="1.0" encoding="UTF-8" standalone="no"?>
<!-- Created with Inkscape (http://www.inkscape.org/) -->

<svg
   xmlns:dc="http://purl.org/dc/elements/1.1/"
   xmlns:cc="http://creativecommons.org/ns#"
   xmlns:rdf="http://www.w3.org/1999/02/22-rdf-syntax-ns#"
   xmlns:svg="http://www.w3.org/2000/svg"
   xmlns="http://www.w3.org/2000/svg"
   xmlns:sodipodi="http://sodipodi.sourceforge.net/DTD/sodipodi-0.dtd"
   xmlns:inkscape="http://www.inkscape.org/namespaces/inkscape"
   version="1.1"
   id="svg3767"
   width="554.66669"
   height="554.66669"
   viewBox="0 0 554.66669 554.66669"
   sodipodi:docname="sheep.svg"
   inkscape:version="0.92.4 5da689c313, 2019-01-14">
  <metadata
     id="metadata3773">
    <rdf:RDF>
      <cc:Work
         rdf:about="">
        <dc:format>image/svg+xml</dc:format>
        <dc:type
           rdf:resource="http://purl.org/dc/dcmitype/StillImage" />
        <dc:title></dc:title>
      </cc:Work>
    </rdf:RDF>
  </metadata>
  <defs
     id="defs3771">
    <filter
       style="color-interpolation-filters:sRGB;"
       inkscape:label="Colorize"
       id="filter3833">
      <feComposite
         in2="SourceGraphic"
         operator="arithmetic"
         k1="10"
         k2="5.6"
         result="composite1"
         id="feComposite3819" />
      <feColorMatrix
         in="composite1"
         values="1"
         type="saturate"
         result="colormatrix1"
         id="feColorMatrix3821" />
      <feFlood
         flood-opacity="1"
         flood-color="rgb(255,255,255)"
         result="flood1"
         id="feFlood3823" />
      <feBlend
         in="flood1"
         in2="colormatrix1"
         mode="multiply"
         result="blend1"
         id="feBlend3825" />
      <feBlend
         in2="blend1"
         mode="screen"
         result="blend2"
         id="feBlend3827" />
      <feColorMatrix
         in="blend2"
         values="1"
         type="saturate"
         result="colormatrix2"
         id="feColorMatrix3829" />
      <feComposite
         in="colormatrix2"
         in2="SourceGraphic"
         operator="in"
         k2="1"
         result="composite2"
         id="feComposite3831" />
    </filter>
  </defs>
  <sodipodi:namedview
     pagecolor="#ffffff"
     bordercolor="#666666"
     borderopacity="1"
     objecttolerance="10"
     gridtolerance="10"
     guidetolerance="10"
     inkscape:pageopacity="0"
     inkscape:pageshadow="2"
     inkscape:window-width="1920"
     inkscape:window-height="1014"
     id="namedview3769"
     showgrid="false"
     inkscape:zoom="1.4423076"
     inkscape:cx="277.33334"
     inkscape:cy="277.33334"
     inkscape:window-x="0"
     inkscape:window-y="0"
     inkscape:window-maximized="1"
     inkscape:current-layer="svg3767" />
  <g
     id="g3781"
     style="filter:url(#filter3833)">
    <path
       style="fill:#8c8c8c;fill-opacity:1;stroke-width:1.33333337"
       d="m 258.80209,408.59924 c -4.65024,-4.97113 -9.28308,-11.02033 -10.2952,-13.44266 -1.31012,-3.13556 -1.84021,-10.68419 -1.84021,-26.20507 0,-24.26983 -1.38883,-31.43714 -8.35719,-43.1287 -3.86639,-6.48704 -4.32837,-6.81538 -8.86093,-6.29753 -6.95066,0.79413 -10.02318,-2.04421 -8.86955,-8.19356 1.04631,-5.57729 3.61627,-7.01257 8.95095,-4.99896 2.09186,0.78959 3.80338,1.26328 3.80338,1.05265 0,-0.21062 -2.98909,-5.70852 -6.64244,-12.21752 -3.65333,-6.509 -6.65333,-12.28454 -6.66666,-12.83454 -0.0133,-0.55 1.08278,-1 2.43578,-1 5.81928,0 9.6217,-9.67234 6.96592,-17.71942 -2.19585,-6.65349 -5.95813,-9.45627 -13.76434,-10.254 -3.73112,-0.38129 -7.02567,-1.42621 -7.32122,-2.32204 -0.93364,-2.83003 5.86156,-8.37121 10.2657,-8.37121 2.23333,0 4.06029,-0.15 4.05993,-0.33334 -3.7e-4,-0.18333 -1.22613,-3.55757 -2.72392,-7.4983 -1.49779,-3.94074 -2.54748,-7.27551 -2.33267,-7.4106 0.21483,-0.1351 3.56294,-0.86148 7.44024,-1.6142 6.76336,-1.31302 7.1542,-1.22866 9.62443,2.07725 l 2.57477,3.44585 0.0423,-4.17157 c 0.0341,-3.37717 0.81867,-4.49317 4.11937,-5.86037 3.62678,-1.50227 4.51048,-1.36844 8,1.21148 4.06586,3.00601 4.49559,2.39274 2.6951,-3.8462 -1.32264,-4.58314 4.19428,-12 8.92601,-12 3.11277,0 3.21868,-0.18558 1.33169,-2.33334 -1.34717,-1.53334 -2.03842,-4.96188 -2.01617,-10 l 0.0339,-7.66667 h 6.4762 6.47618 l 0.11187,5.66667 c 0.0615,3.11667 0.54735,12.56667 1.07963,21 0.53228,8.43334 0.52448,16.61055 -0.0173,18.17158 -0.62354,1.79649 -0.24324,3.89745 1.03614,5.72401 1.77417,2.53299 1.78453,3.24708 0.0848,5.84129 -1.69819,2.59176 -1.69014,3.3266 0.0655,5.97071 1.79733,2.70691 1.77513,3.26591 -0.21714,5.46733 -1.76022,1.94502 -1.93558,3.198 -0.84792,6.05875 0.75417,1.98363 1.37122,13.86053 1.37122,26.39312 0,22.77819 -9.8e-4,22.78563 -2.69366,20.34879 -2.63496,-2.38463 -2.79142,-2.33101 -7.17983,2.46001 -6.99019,7.63151 -8.9548,6.7456 -13.10329,-5.9087 l -3.54271,-10.80644 3.20789,-4.86023 c 7.2517,-10.98691 9.21735,-23.70371 4.9762,-32.19355 -2.56713,-5.13883 -6.88962,-6.67696 -9.59682,-3.41499 -2.47203,2.97862 -0.69487,8.47292 2.9076,8.98922 7.25225,1.03933 6.05348,13.20242 -2.39126,24.26215 l -4.76212,6.23677 4.5847,12.96343 c 8.5756,24.24792 9.34864,28.7841 10.5027,61.63009 0.116,3.3 -0.58946,9.3278 -1.56758,13.39512 l -1.7784,7.39514 4.83449,7.17878 c 5.36573,7.96767 5.61811,7.77448 6.92715,-5.30237 1.12872,-11.27563 4.10641,-25.37301 6.5324,-30.92659 1.83217,-4.19421 1.92856,-3.69937 1.99841,10.25992 0.0616,12.30254 -0.62553,17.43144 -4.26269,31.81882 l -4.3361,17.15216 -8.455,-9.03842 z m 24.09592,-8.92614 c -3.70052,-15.07419 -4.28161,-19.6338 -3.95158,-31.00642 0.35673,-12.29309 0.52334,-13.02368 2.1355,-9.3644 2.45424,5.57062 5.51659,20.82235 6.48782,32.31195 0.45185,5.34552 1.24384,9.71912 1.75994,9.71912 0.51611,0 2.91019,-3.15 5.32016,-7 4.35119,-6.95111 4.36962,-7.05123 2.6392,-14.33333 -0.95841,-4.03334 -1.65138,-9.73334 -1.53993,-12.66667 1.28644,-33.85623 2.04727,-38.36552 10.51087,-62.29676 l 4.58469,-12.96343 -4.76212,-6.23677 c -8.24572,-10.79909 -9.61209,-23.00417 -2.72167,-24.31101 4.83474,-0.91694 6.22255,-6.41813 2.54652,-10.09416 -4.58746,-4.58748 -11.24073,4.30564 -11.24073,15.02499 0,6.31476 2.98024,15.17499 7.3116,21.73735 l 3.20789,4.86023 -3.5427,10.80644 c -4.1485,12.6543 -6.11311,13.54021 -13.1033,5.9087 -4.34062,-4.73885 -4.57094,-4.82102 -7.0993,-2.53289 -2.58578,2.34009 -2.61747,2.08768 -3.027,-24.10225 -0.29228,-18.69254 0.0505,-27.25043 1.16729,-29.13378 1.25365,-2.11433 1.18611,-3.20071 -0.32615,-5.24501 -1.66401,-2.24947 -1.63976,-2.98663 0.19014,-5.77942 1.91604,-2.92424 1.90709,-3.4114 -0.10347,-5.63309 -1.82801,-2.01993 -1.95996,-3.29985 -0.77871,-7.55391 0.78222,-2.81705 1.42983,-9.6219 1.43914,-15.1219 0.009,-5.5 0.39941,-14.05 0.8669,-19.00001 l 0.85,-9 h 6.36438 6.36438 l -0.0393,7.66667 c -0.0255,4.96628 -0.76415,8.48852 -2.09717,10 -1.89599,2.14982 -1.79187,2.33334 1.32388,2.33334 4.73173,0 10.24865,7.41686 8.92601,12 -1.80049,6.23894 -1.37076,6.85221 2.69509,3.8462 3.48952,-2.57992 4.37323,-2.71375 8,-1.21148 3.30071,1.3672 4.08518,2.4832 4.11938,5.86037 l 0.0423,4.17157 2.54472,-3.40458 c 2.44666,-3.27338 2.83043,-3.35226 9.95776,-2.04659 4.07718,0.74689 7.41304,1.77921 7.41304,2.29404 0,0.51483 -1.2,3.73553 -2.66666,7.15713 -1.46667,3.4216 -2.66667,6.47134 -2.66667,6.77722 0,0.30586 1.82727,0.55612 4.0606,0.55612 4.40589,0 11.20128,5.54326 10.26212,8.37121 -0.29751,0.89583 -3.781,2.0302 -7.74112,2.52083 -8.38264,1.03852 -12.57543,4.83222 -14.05459,12.71678 -1.16698,6.22059 2.66938,14.18237 7.13966,14.81725 1.65,0.23433 2.99862,0.83433 2.99696,1.33333 -10e-4,0.499 -3.00168,6.25327 -6.66667,12.78727 -3.665,6.53401 -6.66363,12.0528 -6.66363,12.26397 0,0.21119 1.80751,-0.24612 4.01668,-1.01625 5.54658,-1.93354 7.68479,-0.74163 8.73766,4.87065 1.1529,6.14551 -1.91947,8.98753 -8.85919,8.19495 -4.39299,-0.50171 -5.03363,-0.10787 -8.0754,4.9642 -7.56707,12.61794 -8.24139,15.85808 -9.05485,43.50915 -0.87259,29.66048 -0.88643,29.70316 -13.73679,42.33974 l -7.12493,7.0064 -4.33851,-17.67306 z m -18.9338,-38.42618 c -1.35212,-3.2643 -1.36563,-5.87972 -0.0671,-13 1.52348,-8.35397 1.41531,-9.52045 -1.72301,-18.58024 -1.84169,-5.31667 -2.80516,-9.66667 -2.14103,-9.66667 0.66412,0 3.29934,-1.83665 5.85603,-4.08145 3.89516,-3.42 5.09115,-3.84456 7.37972,-2.61976 2.52565,1.35169 2.73121,2.69703 2.73121,17.87481 0,14.60442 -0.28778,16.67355 -2.6116,18.77656 -1.43637,1.29991 -3.58458,5.2929 -4.77381,8.87333 -1.18923,3.58041 -2.34121,6.50985 -2.55999,6.50985 -0.21876,0 -1.15944,-1.83889 -2.0904,-4.08643 z m 22.24716,-2.35256 c -1.31342,-3.65252 -3.48296,-7.63183 -4.82118,-8.84291 -2.06955,-1.87292 -2.4637,-4.56549 -2.63775,-18.01938 -0.19,-14.6876 0.004,-16.01136 2.70943,-18.53228 l 2.91404,-2.71486 2.65382,3.37379 c 1.45959,1.85557 4.04784,3.90379 5.75166,4.55157 l 3.09784,1.17779 -3.36759,9.72264 c -3.17129,9.15595 -3.27141,10.24965 -1.71775,18.76495 1.38522,7.59198 1.34154,9.69332 -0.27232,13.101 l -1.92214,4.05865 z M 135.24615,299.09129 c -1.69205,-0.33521 -4.14945,-3.2212 -6.37349,-7.48509 l -3.61966,-6.93952 0.72259,5.66667 c 0.41446,3.25024 0.17406,5.66666 -0.56376,5.66666 -3.88277,0 -8.69577,-3.83458 -10.83147,-8.62958 -2.22897,-5.0044 -2.39841,-5.12052 -2.48617,-1.70375 -0.0518,2.01667 -0.54419,3.64759 -1.09419,3.62427 -2.55007,-0.10814 -5.73805,-3.98119 -6.52796,-7.93078 -0.83451,-4.17255 -0.93428,-4.23347 -2.41173,-1.47284 -1.48207,2.76927 -1.8497,2.55811 -9.581878,-5.50379 -14.156409,-14.76004 -13.880167,-19.04944 0.594731,-9.23477 13.922587,9.44016 21.480177,12.61103 30.357147,12.73666 6.65236,0.0941 9.0535,-0.51838 13.45828,-3.4331 9.02739,-5.9736 9.98167,-9.62047 9.51576,-36.36535 l -0.40434,-23.21074 3.9242,-4.11322 c 3.96358,-4.15449 10.45446,-6.74193 16.94712,-6.75557 3.28462,-0.007 3.57106,0.45972 4,6.51633 l 0.46201,6.52376 -7.11484,0.83471 c -7.65031,0.89753 -14.88516,3.95701 -14.88516,6.29465 0,0.82808 0.99316,1.05752 2.33333,0.53906 3.4602,-1.33864 8.24532,-2.11456 15.24716,-2.47236 6.0905,-0.31124 6.29679,-0.19291 8.22607,4.71858 l 1.97892,5.03783 h -7.02711 c -6.46945,0 -14.77086,1.87629 -17.02774,3.84864 -0.51482,0.44992 5.0251,0.69536 12.31096,0.54545 l 13.24698,-0.27258 1.1138,4.27258 1.1138,4.27258 -6.75809,0.31865 c -11.19612,0.52791 -21.0334,1.85047 -20.17188,2.71199 0.44589,0.44589 6.9464,1.14641 14.44559,1.5567 l 13.63488,0.74599 0.41781,4.33333 0.41781,4.33334 -15.08448,0.10826 c -13.74325,0.0987 -14.72882,0.26674 -11.08448,1.8903 2.2,0.98009 8.96746,2.20378 15.03878,2.7193 9.9454,0.84447 10.96889,1.1855 10.33333,3.44304 -2.31619,8.22712 -1.69049,7.75195 -9.10615,6.91559 -3.81294,-0.43003 -11.06481,-1.81275 -16.11526,-3.07269 -8.94408,-2.23131 -9.09995,-2.22706 -6,0.1637 3.50756,2.70511 10.8101,5.63758 19.51597,7.83699 6.34365,1.60263 6.58097,2.06382 3.27345,6.36128 l -2.3339,3.03247 -7.7049,-2.65087 c -4.23769,-1.45798 -10.37409,-4.45229 -13.63644,-6.65402 -3.26234,-2.20171 -5.93154,-3.49985 -5.93154,-2.88473 0,2.48665 12.09332,12.04563 17.1595,13.5635 5.9516,1.78313 5.97054,2.89696 0.1008,5.93232 -3.65026,1.88763 -4.33472,1.80052 -10.5329,-1.34033 -3.64592,-1.84754 -8.7511,-5.22242 -11.34483,-7.49975 -2.59375,-2.27733 -4.71365,-3.62845 -4.71091,-3.00248 0.012,2.85871 5.793,10.16888 10.0071,12.65525 2.56002,1.51046 4.65458,2.987 4.65458,3.28124 0,0.65327 -10.2798,0.38052 -14.08718,-0.37376 z m 270.0872,0.37376 c 0,-0.29424 2.09456,-1.77078 4.65459,-3.28124 4.21409,-2.48637 9.99457,-9.79654 10.00709,-12.65525 0.003,-0.62597 -2.11716,0.72515 -4.71091,3.00248 -2.59373,2.27733 -7.6989,5.65221 -11.34482,7.49975 -6.19819,3.14085 -6.88264,3.22796 -10.53291,1.34033 -5.95033,-3.07704 -5.77009,-3.94935 1.33768,-6.4738 6.01789,-2.13736 15.92261,-10.32963 15.92261,-13.1697 0,-0.65816 -2.10814,0.41131 -4.68476,2.37659 -2.57662,1.96528 -8.69822,5.03006 -13.60356,6.81059 l -8.91878,3.23735 -2.3668,-3.07607 c -3.34344,-4.34539 -3.11366,-4.79959 3.24057,-6.40488 8.70587,-2.19942 16.00841,-5.13188 19.51597,-7.83699 3.09995,-2.39076 2.94408,-2.39501 -6,-0.16371 -5.05045,1.25995 -12.30232,2.64267 -16.11526,3.0727 -7.44371,0.83952 -6.84734,1.30969 -9.21772,-7.26714 -0.51159,-1.85108 1.09628,-2.34125 10.37346,-3.16246 6.0384,-0.53452 13.10846,-1.75647 15.71123,-2.71544 4.37195,-1.61082 3.53287,-1.75074 -11.01883,-1.83754 l -15.75114,-0.0939 0.41781,-4.33334 0.41781,-4.33333 13.63488,-0.74599 c 7.49919,-0.41029 13.9997,-1.11081 14.44559,-1.5567 0.86152,-0.86152 -8.97576,-2.18408 -20.17188,-2.71199 l -6.75809,-0.31865 1.1138,-4.27258 1.1138,-4.27258 13.31229,0.27258 c 7.32176,0.14991 13.31169,0.10774 13.31096,-0.0937 -0.004,-1.23887 -8.62828,-3.46372 -16.10728,-4.15553 l -8.7726,-0.81147 1.83461,-4.47593 1.83462,-4.47594 9.60465,0.5961 c 5.28256,0.32784 10.65465,1.05621 11.93799,1.61858 1.41404,0.61964 2.33333,0.45447 2.33333,-0.41925 0,-2.33764 -7.23485,-5.39712 -14.88516,-6.29465 l -7.11484,-0.83471 0.47343,-6.69289 0.47342,-6.6929 6.55318,0.77612 c 8.40318,0.99524 13.90766,4.28756 16.57848,9.9159 1.79821,3.78946 1.97806,7.67448 1.17994,25.48845 -0.83592,18.65793 -0.67406,21.58137 1.44167,26.03997 5.76765,12.15443 21.78368,15.71847 36.63322,8.15198 4.03333,-2.05516 10.75041,-6.05359 14.92684,-8.8854 14.47489,-9.81467 14.75114,-5.52527 0.59473,9.23477 -7.73217,8.0619 -8.09981,8.27306 -9.58188,5.50379 -1.47744,-2.76063 -1.57721,-2.69971 -2.41172,1.47284 -0.78992,3.94959 -3.97791,7.82264 -6.52797,7.93077 -0.55,0.0233 -1.04239,-1.6076 -1.09419,-3.62426 -0.0877,-3.41678 -0.2572,-3.30066 -2.48617,1.70374 -2.10395,4.7237 -6.94186,8.62956 -10.68885,8.62956 -0.62904,0 -0.88341,-2.55 -0.56525,-5.66666 l 0.57847,-5.66667 -3.45488,6.84991 c -2.74995,5.45226 -4.28812,7.01656 -7.53867,7.66666 -4.58872,0.91775 -13.0838,1.10071 -13.0838,0.2818 z M 215.19937,288.65392 c -6.34532,-6.34532 -8.78724,-17.49951 -5.98113,-27.32058 0.71004,-2.48509 1.17938,-0.95825 1.84436,6 0.58774,6.15016 2.18638,11.94809 4.68736,17.00001 2.08746,4.21666 3.57041,7.66666 3.29545,7.66666 -0.27497,0 -2.00569,-1.50574 -3.84604,-3.34609 z m 122.65626,-0.98724 c 2.91316,-4.55873 6.1342,-16.74982 6.2289,-23.57534 0.0757,-5.46382 0.22448,-5.74794 1.44328,-2.758 2.37562,5.8278 0.72438,17.81369 -3.28974,23.87943 -1.98507,2.99966 -4.21455,5.45391 -4.95438,5.45391 -0.73984,0 -0.48246,-1.35 0.57194,-3 z M 141.33334,250.4611 c 0,-1.09085 -2.44073,-8.46028 -5.42384,-16.3765 -13.34626,-35.41671 -5.34092,-54.7045 20.00941,-48.21005 7.50199,1.92192 21.41443,8.0651 21.41443,9.45575 0,1.65031 -13.35951,-1.35929 -18.53609,-4.17577 -6.54116,-3.55892 -8.18547,-3.49082 -4.13875,0.17141 3.75633,3.39944 3.33837,4.67407 -1.53264,4.67407 -2.45608,0 -6.06365,-1.41578 -8.66667,-3.40119 -5.162,-3.93725 -6.14814,-1.77227 -1.74338,3.82747 2.3143,2.94217 2.464,3.85575 1.0126,6.17981 -2.08259,3.33475 -2.04955,3.33442 -7.39507,0.0752 -2.38333,-1.45314 -4.33333,-2.37913 -4.33333,-2.05774 0,2.3188 3.51437,7.46581 5.53568,8.10736 1.76636,0.56061 2.46432,2.07841 2.46432,5.35896 0,5.12268 -0.75716,5.49868 -5.03666,2.50121 -4.39645,-3.0794 -3.73522,0.28467 0.90863,4.62267 3.44683,3.21981 4.05121,5.04098 5.5044,16.5861 0.89784,7.13302 1.25545,13.34611 0.79469,13.80687 -0.46074,0.46075 -0.83773,-0.0548 -0.83773,-1.14563 z m 270.6948,-0.58242 c -0.0155,-1.53339 0.64828,-7.81404 1.47498,-13.95698 1.28683,-9.56182 2.05427,-11.68385 5.33334,-14.74696 4.61156,-4.30782 5.24348,-7.64916 0.86688,-4.58366 -4.2795,2.99746 -5.03666,2.62146 -5.03666,-2.50122 0,-3.28054 0.69796,-4.79834 2.46432,-5.35896 2.0104,-0.63808 5.53568,-5.78493 5.53568,-8.082 0,-0.30742 -2.00441,0.62367 -4.45425,2.06911 -4.43921,2.61921 -4.46241,2.61905 -6.87331,-0.0449 -2.21429,-2.44676 -2.24013,-2.87078 -0.30522,-5.00882 1.16261,-1.28468 2.75816,-4.03047 3.54566,-6.10176 l 1.43183,-3.76599 -4.97615,4.10176 c -3.31269,2.73058 -6.43458,4.10174 -9.33901,4.10174 -5.02117,0 -5.47236,-1.24931 -1.68804,-4.67407 4.04672,-3.66223 2.40241,-3.73033 -4.13875,-0.17141 -5.17658,2.81648 -18.53609,5.82608 -18.53609,4.17577 0,-1.39065 13.91244,-7.53383 21.41443,-9.45575 13.12738,-3.36308 20.91438,-0.33965 24.70778,9.59322 2.78552,7.29381 1.96496,20.36129 -1.95913,31.19891 -1.46039,4.03333 -4.18185,11.53333 -6.04771,16.66666 -1.86585,5.13334 -3.40512,8.07874 -3.42058,6.54534 z m -91.88189,-30.54534 c -0.22282,-3.64312 -7.79354,-7.95256 -10.3067,-5.86682 -1.47691,1.22572 -1.83954,0.89596 -1.83954,-1.67276 0,-1.7597 -1.65,-5.01688 -3.66666,-7.23818 -3.12323,-3.44014 -3.73404,-5.41428 -4.12126,-13.31981 l -0.45458,-9.28107 10.45458,-8.70907 c 28.59023,-23.81676 50.88819,-35.91229 66.20379,-35.91229 17.50246,0 44.27555,17.49065 51.65567,33.74625 2.64031,5.81558 3.17445,12.5682 1.70028,21.49444 l -0.86551,5.24071 -1.76625,-5.90737 c -0.97143,-3.24904 -1.81337,-8.00736 -1.871,-10.57403 -0.1016,-4.52805 -0.14723,-4.56765 -1.53472,-1.33333 -1.39849,3.25998 -1.4552,3.21597 -2.57644,-2 -2.54673,-11.84735 -2.94745,-12.49944 -3.75071,-6.10354 -0.40728,3.24306 -1.4819,6.14018 -2.38805,6.43807 -1.96153,0.64483 -3.47672,-2.86843 -5.89465,-13.66787 l -1.79115,-8 -0.38941,10.33334 c -0.3642,9.66396 -0.58012,10.33101 -3.33334,10.29749 -2.31776,-0.0283 -3.74762,-1.83593 -6.72256,-8.49895 -2.28842,-5.12544 -6.18172,-10.76405 -9.87198,-14.29749 l -6.09336,-5.83439 4.29014,7.33334 c 10.57222,18.07157 11.55063,22.23968 5.79554,24.6897 -4.20931,1.79196 -4.34836,1.74496 -5.20002,-1.75758 -1.19354,-4.9086 -10.19926,-15.48895 -17.40173,-20.44438 -3.26004,-2.24297 -6.12323,-3.87029 -6.36263,-3.61626 -0.2394,0.25401 4.00278,5.72874 9.42704,12.16606 11.39128,13.51874 12.20466,16.68491 5.1504,20.04884 -5.47554,2.61111 -5.95476,2.68822 -5.95476,0.95823 0,-1.3734 -23.34571,-24.38299 -25.55733,-25.18937 -3.3382,-1.21715 5.47061,11.97161 13.07457,19.57557 4.66552,4.66552 8.47844,8.87721 8.47316,9.35931 -0.005,0.4821 -2.55528,2.50368 -5.66666,4.49241 -4.34156,2.77502 -5.8121,3.1911 -6.32374,1.78923 -0.36667,-1.00466 -3.96667,-4.03306 -8,-6.72978 -4.03333,-2.69673 -9.85644,-7.70188 -12.94025,-11.12256 -6.54014,-7.25458 -7.61539,-5.05344 -1.91912,3.92864 2.18765,3.44956 7.0089,8.12859 11.33333,10.99898 4.13932,2.74753 7.50264,5.71343 7.47404,6.59089 -0.0287,0.87747 -2.77137,3.59666 -6.09504,6.04264 -5.78499,4.25732 -6.07397,4.32894 -6.76744,1.67711 -0.40945,-1.56572 -3.99132,-4.63601 -8.23829,-7.06167 -4.13264,-2.36034 -10.44116,-7.21375 -14.01894,-10.78532 -6.10193,-6.09137 -6.44934,-6.25987 -5.60649,-2.71891 1.25956,5.29159 4.73503,9.73358 11.56875,14.78597 12.03617,8.89874 13.71685,10.77097 11.77226,13.11405 -1.29844,1.56452 -3.08541,1.91891 -6.73401,1.33548 -4.02023,-0.64287 -5.08275,-0.34957 -5.57635,1.53927 -0.51426,1.96796 -0.63533,1.91577 -0.77288,-0.33322 z m -86.65824,-0.39374 c -0.1112,-1.24118 -1.47173,-1.48 -4.83595,-0.84888 -9.49586,1.78144 -10.76569,-4.71422 -1.91712,-9.80682 7.8944,-4.54344 14.77754,-11.05363 16.79702,-15.88691 2.98861,-7.15277 2.12052,-7.1442 -5.251,0.0519 -3.8788,3.78648 -9.90043,8.38451 -13.38138,10.21784 -3.84533,2.02524 -6.62849,4.51062 -7.09216,6.33334 -0.41974,1.65 -1.02334,3 -1.34134,3 -0.93492,0 -12.35907,-8.60323 -12.39366,-9.33334 -0.0689,-1.45461 2.23127,-3.64126 8.94575,-8.50421 6.60761,-4.78559 13.64851,-14.18006 13.64851,-18.21086 0,-0.99774 -3.5571,1.78738 -7.90464,6.18916 -4.34755,4.40179 -10.007,9.13544 -12.57656,10.51924 -2.56955,1.3838 -5.16246,3.58547 -5.76203,4.8926 -1.00795,2.19749 -1.51649,2.10293 -6.74718,-1.25468 -3.11138,-1.9972 -5.66138,-4.02572 -5.66666,-4.50782 -0.005,-0.4821 3.80764,-4.69379 8.47316,-9.35931 7.67224,-7.67223 16.38172,-20.75728 13.02961,-19.57557 -2.07416,0.7312 -25.51237,23.98602 -25.51237,25.31277 0,1.59659 -0.54674,1.49728 -5.95476,-1.08163 -7.05426,-3.36393 -6.24088,-6.5301 5.1504,-20.04884 5.42426,-6.43732 9.66644,-11.91205 9.42704,-12.16606 -0.2394,-0.25403 -3.10259,1.37329 -6.36263,3.61626 -7.20247,4.95543 -16.20819,15.53578 -17.40173,20.44438 -0.85166,3.50254 -0.99071,3.54954 -5.20002,1.75758 -5.75509,-2.45002 -4.77668,-6.61813 5.79554,-24.6897 l 4.29014,-7.33334 -6.16228,5.90204 c -3.84396,3.68162 -7.54416,9.074 -9.83536,14.33334 -2.9666,6.80962 -4.25713,8.43129 -6.7097,8.43129 -2.88614,0 -3.04391,-0.51215 -3.18323,-10.33333 l -0.14657,-10.33334 -2.44568,9.85892 c -1.34512,5.4224 -3.02687,10.44012 -3.73724,11.1505 -2.31515,2.31514 -4.18974,-0.38218 -4.23114,-6.08811 -0.0513,-7.08129 -2.36484,-3.87861 -3.10088,4.29277 -0.5253,5.83199 -2.13347,7.22579 -3.7128,3.21792 -0.68465,-1.73744 -0.99089,-1.09924 -1.0723,2.23467 -0.0627,2.56667 -0.90876,7.32499 -1.8802,10.57403 l -1.76624,5.90737 -0.86551,-5.24071 c -1.47418,-8.92624 -0.94003,-15.67886 1.70027,-21.49444 7.38013,-16.2556 34.15322,-33.74625 51.65568,-33.74625 13.74162,0 35.92316,11.45429 60.84339,31.41884 7.93176,6.35444 14.93477,12.90385 15.56225,14.55425 0.65463,1.72182 0.59501,5.43018 -0.13987,8.70091 -0.70441,3.13508 -1.07774,6.30916 -0.82962,7.0535 0.2481,0.74434 -1.2617,3.21016 -3.35512,5.47958 -2.51107,2.7222 -3.6183,5.14708 -3.25392,7.12626 0.59496,3.23169 -0.37804,3.8332 -2.60242,1.60882 -1.69964,-1.69964 -9.45768,2.36678 -10.28544,5.39118 -0.35176,1.28525 -0.60265,1.38278 -0.70205,0.27292 z"
       id="path3785"
       inkscape:connector-curvature="0" />
    <path
       style="fill:#333333;fill-opacity:1;stroke-width:1.33333337"
       d="m 258.33992,409.00002 c -12.29486,-14.19283 -11.67324,-12.22167 -11.67324,-37.01655 0,-24.59563 -1.58478,-33.51764 -7.93102,-44.65012 -3.2234,-5.65446 -4.35397,-6.62486 -7.44625,-6.39126 -5.3694,0.40563 -11.29303,-3.08562 -11.2712,-6.64298 0.0543,-8.83183 3.1664,-11.47872 9.59052,-8.15668 l 4.10647,2.12353 -2.67396,-4.46631 c -1.47068,-2.45646 -4.34238,-7.5987 -6.38155,-11.42718 -2.03916,-3.8285 -4.16584,-6.67767 -4.72595,-6.3315 -0.5601,0.34616 -0.73485,-0.4548 -0.38833,-1.77992 0.34653,-1.3251 2.34921,-3.05821 4.4504,-3.85132 5.50657,-2.07849 7.56541,-10.12008 4.53197,-17.70137 -2.50225,-6.25375 -7.33093,-9.37502 -14.5034,-9.37502 -3.13046,0 -5.05434,-0.72865 -5.58668,-2.1159 -1.19901,-3.12456 4.9851,-8.69375 9.80586,-8.83082 l 4.0171,-0.11426 -2.46365,-6.48384 c -1.35501,-3.56606 -2.46367,-6.99451 -2.46367,-7.61874 0,-0.62424 3.3603,-1.80981 7.46732,-2.63461 7.03644,-1.41312 7.6109,-1.32757 9.95564,1.48259 l 2.48832,2.98225 0.0444,-3.63243 c 0.0321,-2.63518 1.10551,-4.18117 3.90962,-5.63122 3.5551,-1.83842 4.13364,-1.78767 7.21029,0.63242 4.54809,3.57754 4.91131,3.3621 3.42247,-2.03001 -1.1397,-4.12765 -0.86144,-5.19461 2.43074,-9.32059 2.54763,-3.19282 4.45536,-4.42524 6.06118,-3.91557 2.48194,0.78773 3.2699,-1.3726 1.01006,-2.76927 -0.73333,-0.45322 -1.33333,-4.31865 -1.33333,-8.58985 0,-8.39759 0.96429,-9.34778 9.53135,-9.39195 3.3882,-0.0175 3.56625,0.34663 4.39246,8.9818 0.47362,4.95 1.05874,16.58467 1.30024,25.85483 0.24152,9.27016 0.88568,17.57737 1.43147,18.46047 0.54579,0.8831 0.23113,3.02798 -0.69924,4.76638 -1.36256,2.54598 -1.36413,3.5553 -0.008,5.18923 0.98444,1.18617 1.26489,3.0044 0.67539,4.37879 -0.55444,1.29266 -0.8655,14.5003 -0.69122,29.35031 0.3114,26.53357 -0.1548,29.55168 -3.87282,25.07173 -1.3534,-1.63075 -2.22276,-1.21932 -5.63471,2.66667 -2.37895,2.70946 -5.27935,4.59493 -7.06836,4.59493 -2.62899,0 -3.48581,-1.44415 -6.41933,-10.81945 l -3.38538,-10.81947 4.81892,-8.76695 c 4.12327,-7.50137 4.82931,-10.03795 4.89079,-17.57129 0.0847,-10.3698 -2.87805,-16.45458 -7.67907,-15.7712 -2.31312,0.32925 -3.00112,1.44609 -3.32888,5.40381 -0.32168,3.88419 0.009,4.82668 1.49475,4.25665 2.98628,-1.14594 6.25173,3.1507 6.25173,8.22596 0,6.02943 -2.6857,12.27226 -7.7716,18.06477 l -4.1052,4.67556 5.21059,14.79266 c 6.75061,19.16474 9.87865,34.65571 8.90427,44.0966 -0.4946,4.79214 -0.1248,8.85135 1.06609,11.7015 1.61129,3.85636 1.50421,5.52255 -0.92053,14.32369 l -2.74395,9.9597 4.70085,7.51529 4.70086,7.51531 1.56857,-11.72491 c 1.87168,-13.99039 6.20433,-32.40584 8.06105,-34.26256 0.88311,-0.88311 1.329,3.693 1.329,13.63933 0,12.32496 -0.73553,17.90544 -4.16506,31.6 -2.29092,9.14742 -4.64019,16.63167 -5.22072,16.63167 -0.58054,0 -4.30403,-3.75 -8.27444,-8.33333 z m 24.49183,-8.29834 c -3.42954,-13.69456 -4.16507,-19.27504 -4.16507,-31.6 0,-9.94633 0.44589,-14.52244 1.329,-13.63933 1.85672,1.85672 6.18937,20.27217 8.06105,34.26256 l 1.56858,11.72491 4.70085,-7.51531 4.70085,-7.51529 -2.74394,-9.9597 c -2.4407,-8.85901 -2.53924,-10.44957 -0.89182,-14.39242 1.2044,-2.88256 1.57667,-6.75838 1.06448,-11.08295 -1.09234,-9.22319 1.39323,-22.02275 8.18142,-42.13051 l 5.78845,-17.14637 -4.68924,-6.14324 c -5.57532,-7.30408 -7.06968,-10.87398 -7.06968,-16.88891 0,-4.96438 3.29463,-9.2311 6.25173,-8.09634 1.48547,0.57003 1.81643,-0.37246 1.49475,-4.25665 -0.32216,-3.89007 -1.03044,-5.07693 -3.21597,-5.38901 -4.71888,-0.67384 -7.73706,5.61022 -7.6547,15.93768 0.0609,7.64512 0.75035,10.10717 4.98947,17.81929 l 4.91872,8.94851 -3.50149,10.51404 c -3.04572,9.14544 -3.90851,10.51404 -6.62827,10.51404 -1.95507,0 -4.57604,-1.75823 -6.99428,-4.69197 l -3.86752,-4.69198 -2.56289,2.83736 c -2.53931,2.81127 -2.56902,2.58774 -3.22955,-24.30802 -0.36667,-14.92997 -0.1284,-28.47762 0.52936,-30.10591 0.81585,-2.01946 0.64601,-3.62326 -0.53431,-5.04544 -1.39536,-1.68132 -1.40696,-2.68919 -0.0599,-5.20616 1.24792,-2.33178 1.29736,-3.81828 0.19545,-5.87722 -1.0418,-1.94661 -1.08953,-5.42186 -0.16252,-11.83333 0.72184,-4.99253 1.33093,-13.87733 1.35353,-19.744 0.0225,-5.86667 0.41299,-12.91667 0.86754,-15.66667 0.75006,-4.53791 1.2108,-4.99832 4.98532,-4.9818 9.09782,0.0399 9.6141,0.60847 8.82773,9.72309 -0.39189,4.54229 -1.22784,9.07299 -1.85767,10.06822 -0.86005,1.35904 -0.52018,1.61116 1.36524,1.01276 1.819,-0.57733 3.56626,0.52653 6.34432,4.00819 3.43886,4.30977 3.69115,5.2703 2.44808,9.32057 -1.60846,5.24084 -1.24372,5.44981 3.28896,1.88441 3.07666,-2.42009 3.65519,-2.47084 7.2103,-0.63242 2.78878,1.44213 3.86525,2.98232 3.86525,5.5303 v 3.53152 l 3,-2.78922 c 2.71988,-2.52879 3.65361,-2.65848 10,-1.38907 3.85,0.77008 7,1.9142 7,2.54249 0,0.6283 -1.10865,4.06008 -2.46367,7.62619 l -2.46365,6.48384 4.01711,0.11427 c 4.82076,0.13706 11.00486,5.70625 9.80585,8.83081 -0.48167,1.25503 -2.37541,2.11585 -4.65488,2.11585 -10.73759,0 -16.24081,5.6251 -16.24081,16.60046 0,6.33077 3.26074,11.39955 7.33333,11.39955 1.1,0 2,0.67696 2,1.50436 0,1.38812 -4.67007,10.2519 -10.9968,20.87192 l -2.60711,4.37626 4.81531,-2.29625 c 5.81784,-2.77433 7.36615,-1.67924 8.38703,5.93201 0.66222,4.93728 0.39513,5.54655 -3.26035,7.43687 -2.18991,1.13244 -5.64088,1.93505 -7.6688,1.78357 -3.27892,-0.24492 -4.18587,0.6841 -8.1918,8.39126 -5.92912,11.40722 -7.14415,18.8709 -7.14415,43.88531 0,17.27818 -0.38194,21.42004 -2.22714,24.15134 -3.63646,5.38275 -16.57898,19.96335 -17.72054,19.96335 -0.58053,0 -2.9298,-7.48425 -5.22058,-16.63167 z m -19.10943,-39.16605 c -1.93043,-4.91439 -1.95035,-6.24588 -0.19404,-12.97151 1.88085,-7.20255 1.82272,-7.89297 -1.48992,-17.6962 l -3.44712,-10.20124 3.0351,-2 c 1.66931,-1.1 4.38899,-3.44053 6.04374,-5.2012 2.91498,-3.10153 3.09148,-3.12623 5.66929,-0.79335 2.39557,2.16796 2.66064,4.1141 2.66064,19.53454 0,10.67538 -0.50877,17.12668 -1.35067,17.12668 -1.224,0 -4.46868,6.20556 -7.58472,14.50607 -1.14026,3.03741 -1.28282,2.93914 -3.3423,-2.30379 z m 21.76639,-2.73637 c -1.66323,-4.56159 -3.8786,-8.62171 -4.92304,-9.02251 -1.50558,-0.57774 -1.89899,-4.24735 -1.89899,-17.71274 0,-15.27789 0.26728,-17.22592 2.66064,-19.39188 2.57781,-2.33288 2.75431,-2.30818 5.66929,0.79335 1.65475,1.76067 4.37443,4.1012 6.04374,5.2012 l 3.0351,2 -3.44712,10.20124 c -3.32172,9.83011 -3.37521,10.47664 -1.47025,17.77149 1.80575,6.915 1.77683,8.04131 -0.33421,13.01195 l -2.3111,5.44168 z M 133.06442,298.33335 c -1.16156,-0.91667 -3.05221,-3.46667 -4.20145,-5.66667 l -2.08953,-4 -0.0534,4.26397 c -0.0524,4.18262 -0.13209,4.23654 -4.17891,2.8258 -2.26905,-0.79098 -5.2668,-3.30977 -6.66169,-5.5973 -1.72374,-2.82684 -2.53774,-3.4117 -2.54113,-1.8258 -0.003,1.28333 -0.51737,2.33333 -1.14362,2.33333 -2.39508,0 -8.20172,-6.67849 -8.34937,-9.603 -0.11402,-2.25868 -0.31488,-2.45057 -0.76443,-0.73033 -0.33537,1.28333 -1.05777,2.33333 -1.60533,2.33333 -2.215182,0 -12.800125,-10.27811 -16.350598,-15.87663 -6.544359,-10.31937 -5.387913,-10.49264 8.929584,-1.33787 14.881664,9.51552 20.826814,11.88116 29.858814,11.88116 8.48663,0 14.23746,-2.91677 19.29737,-9.78744 2.61901,-3.55626 2.76468,-5.20012 2.38641,-26.93177 -0.44089,-25.32901 0.29016,-28.71617 7.17088,-33.2246 1.96406,-1.28689 6.94472,-2.64196 11.06816,-3.01127 l 7.49715,-0.67145 0.10773,7.47993 0.10774,7.47994 -6.77438,0.005 c -4.39933,0.003 -8.29362,0.93128 -11.10772,2.64707 -2.38333,1.45314 -4.33333,2.89218 -4.33333,3.19785 0,0.30568 2.79536,-0.28551 6.21191,-1.31373 3.41654,-1.02823 8.80849,-1.86951 11.9821,-1.86951 5.37128,0 5.90971,0.33388 7.7881,4.82949 1.10984,2.65623 2.01789,4.97562 2.01789,5.15419 0,0.17857 -4.09695,0.61781 -9.10433,0.97608 -5.00738,0.35828 -10.25738,1.32065 -11.66667,2.13861 -2.0222,1.17371 0.0209,1.49575 9.69231,1.52775 6.74005,0.0223 12.5071,0.49055 12.81565,1.04055 0.30856,0.55 0.9554,2.65 1.43743,4.66666 l 0.87641,3.66667 -7.69207,0.0988 c -4.23068,0.054 -10.3921,0.52779 -13.6921,1.05245 l -6,0.95394 8.52892,0.94722 c 4.6909,0.52099 11.1409,0.94724 14.33333,0.94724 5.74472,0 5.80441,0.048 5.80441,4.66667 v 4.66667 l -8.33333,0.25705 c -4.58333,0.14139 -11.33333,0.17495 -15,0.0745 l -6.66667,-0.18246 5.33334,1.82294 c 2.93333,1.00262 9.68333,1.86906 15,1.92542 10.59194,0.11226 11.32813,0.8922 8.31726,8.81138 -1.32222,3.47774 -1.51682,3.52983 -9.66666,2.58764 -4.5745,-0.52884 -11.16727,-1.69902 -14.6506,-2.6004 -3.48334,-0.90137 -6.33334,-1.43894 -6.33334,-1.19461 0,1.14417 10.9943,5.86287 16.82082,7.21942 10.67312,2.48494 10.33778,2.17652 7.1831,6.60686 -1.56869,2.20303 -3.38881,4.00551 -4.04469,4.00551 -2.68416,0 -16.08077,-5.66835 -20.52583,-8.68484 -2.6217,-1.77908 -4.76673,-2.69958 -4.76673,-2.0455 0,2.33478 10.74099,10.33057 15.98989,11.90317 6.42978,1.92641 6.70587,3.38754 1.18004,6.24505 -3.83776,1.98459 -4.6113,1.98193 -9.88972,-0.0339 -3.14946,-1.2028 -8.47704,-4.6082 -11.83906,-7.56757 -3.7752,-3.32307 -5.76752,-4.44421 -5.20996,-2.93184 1.91209,5.18655 5.03589,8.70093 9.97248,11.2194 2.82132,1.43932 5.12966,2.90476 5.12966,3.25652 0,1.43075 -15.64452,0.51789 -17.60225,-1.02709 z m 270.9356,1.02709 c 0,-0.35176 2.33953,-1.83311 5.19897,-3.29188 4.47664,-2.28381 10.80103,-9.70405 10.80103,-12.67257 0,-0.52576 -2.74963,1.46438 -6.1103,4.42256 -3.36065,2.95816 -8.68712,6.36258 -11.83658,7.56538 -5.27842,2.01584 -6.05196,2.0185 -9.88972,0.0339 -2.28987,-1.18413 -4.1634,-2.64153 -4.1634,-3.23865 0,-0.59712 2.40682,-1.88002 5.3485,-2.85086 5.32887,-1.75864 15.98483,-9.79733 15.98483,-12.05867 0,-0.65408 -2.14503,0.26642 -4.76673,2.04555 -4.44506,3.0165 -17.84167,8.68484 -20.52583,8.68484 -0.65588,0 -2.476,-1.80248 -4.04469,-4.0055 -3.15468,-4.43035 -3.49002,-4.12192 7.1831,-6.60687 6.21704,-1.44747 16.82082,-6.10088 16.82082,-7.38172 0,-0.33362 -1.42316,-0.0655 -3.16259,0.59584 -5.4182,2.06 -24.96325,4.47476 -26.16583,3.23276 -0.6219,-0.64231 -1.54421,-3.41784 -2.04954,-6.16784 l -0.91882,-5 9.81506,-0.10254 c 5.39828,-0.0564 12.21505,-0.9004 15.14838,-1.87565 l 5.33334,-1.77319 -6.66667,0.15232 c -3.66667,0.0837 -10.41667,0.0279 -15,-0.1244 l -8.33333,-0.27654 v -4.66667 c 0,-4.61868 0.0597,-4.66667 5.80441,-4.66667 3.19243,0 9.64243,-0.42625 14.33333,-0.94724 l 8.52892,-0.94722 -6,-0.95394 c -3.3,-0.52466 -9.45,-0.99841 -13.66666,-1.05277 -4.21667,-0.0544 -7.66667,-0.30929 -7.66667,-0.56653 0,-0.25723 0.65869,-2.35723 1.46377,-4.66667 l 1.46376,-4.19896 12.20291,-0.0405 c 9.63331,-0.032 11.66333,-0.35371 9.64056,-1.52775 -1.40929,-0.81796 -6.65929,-1.78033 -11.66667,-2.13861 -5.00738,-0.35828 -9.10433,-0.79752 -9.10433,-0.9761 0,-0.17857 0.90805,-2.49796 2.01789,-5.15418 1.87839,-4.49562 2.41682,-4.8295 7.7881,-4.8295 3.17361,0 8.56556,0.84128 11.9821,1.86951 3.41655,1.02823 6.21191,1.61941 6.21191,1.31373 0,-0.30566 -1.95,-1.7447 -4.33333,-3.19785 -2.8141,-1.71579 -6.70839,-2.64383 -11.10772,-2.64707 l -6.77438,-0.005 0.10774,-7.47993 0.10773,-7.47994 7.71433,0.69115 c 14.54715,1.30333 18.70343,6.97876 18.11878,24.74133 -0.96208,29.22923 -0.64992,34.46934 2.28949,38.43294 5.08525,6.8571 10.82637,9.76112 19.29737,9.76112 9.03199,0 14.97715,-2.36564 29.85881,-11.88116 5.83666,-3.73203 11.08666,-6.78551 11.66666,-6.78551 3.88103,0 -5.40186,13.57859 -14.01912,20.50655 -4.229,3.39996 -5.28,3.75284 -6.31292,2.11959 -1.0313,-1.6307 -1.24265,-1.55728 -1.25965,0.43753 -0.0203,2.38475 -6.04315,8.93633 -8.21511,8.93633 -0.62625,0 -1.14088,-1.05 -1.14362,-2.33333 -0.004,-1.58589 -0.81739,-1.00104 -2.54114,1.8258 -1.39488,2.28753 -4.39264,4.80632 -6.66168,5.59731 -4.04681,1.41073 -4.12655,1.35681 -4.17892,-2.8258 l -0.0533,-4.26398 -2.08952,4 c -1.14924,2.2 -3.0399,4.75 -4.20146,5.66667 -1.95782,1.54533 -17.60234,2.45819 -17.60234,1.02744 z m -187.19073,-8.8198 c -7.50344,-5.9022 -10.82541,-19.27979 -7.58396,-30.54063 0.754,-2.61943 1.16732,-1.55515 1.92981,4.96923 1.28418,10.98806 4.20192,20.52044 7.60551,24.8474 3.33813,4.24375 2.78443,4.44919 -1.95136,0.724 z m 117.89072,2.53559 c -0.0184,-0.50808 1.25812,-3.11263 2.83656,-5.78788 3.26342,-5.5311 6.3486,-17.39814 6.57444,-25.28834 l 0.15266,-5.33333 1.94388,6 c 2.8785,8.88478 0.49228,18.65968 -6.3152,25.86947 -2.83744,3.00512 -5.17399,5.04816 -5.19234,4.54008 z M 141.54673,252.57221 c -0.11734,-1.51863 -2.69532,-9.31863 -5.7288,-17.33333 -4.58418,-12.1118 -5.6124,-16.59831 -6.08984,-26.5722 -0.50147,-10.47595 -0.22063,-12.56055 2.21128,-16.41358 3.11138,-4.92957 9.74696,-8.26741 16.35114,-8.22497 5.45492,0.0351 20.94831,5.41937 26.717,9.28477 l 4.32583,2.8986 -7.43705,-0.65239 c -4.15524,-0.36449 -9.4506,-1.87988 -12,-3.43409 -6.12899,-3.73641 -7.70898,-3.51677 -3.89628,0.54165 2.46794,2.62702 2.68157,3.33334 1.00813,3.33334 -1.16785,0 -2.95853,0.32048 -3.97928,0.71218 -1.02076,0.3917 -4.09648,-0.8083 -6.83493,-2.66666 -6.33519,-4.29918 -6.70964,-4.24372 -4.19392,0.62114 1.13766,2.2 2.68108,4.00001 3.42982,4.00001 1.84156,0 -3.03577,6.57176 -4.91668,6.62477 -0.81777,0.0231 -3.06777,-1.20165 -5,-2.72155 -4.75423,-3.73968 -4.45115,-1.18938 0.48686,4.09678 2.87108,3.07349 4,5.60257 4,8.96102 v 4.679 l -3.44902,-2.25988 c -1.89696,-1.24293 -3.69063,-2.01828 -3.98592,-1.72298 -0.65432,0.65432 4.0987,5.88625 5.94147,6.54013 1.656,0.5876 4.5504,21.83573 3.80595,27.93996 -0.30382,2.49117 -0.6484,3.28691 -0.76576,1.76828 z M 412.09,249.76316 c -0.13486,-8.34802 2.6052,-26.36332 4.0913,-26.89919 1.83344,-0.66115 6.56852,-5.89193 5.92032,-6.54013 -0.2953,-0.2953 -2.08896,0.48005 -3.98592,1.72298 l -3.44902,2.25988 v -4.679 c 0,-3.35845 1.12892,-5.88753 4,-8.96102 4.93802,-5.28616 5.24108,-7.83646 0.48686,-4.09678 -1.93223,1.5199 -4.18223,2.74459 -5,2.72155 -1.88091,-0.053 -6.75824,-6.62477 -4.91668,-6.62477 0.74874,0 2.31762,-1.84925 3.48641,-4.10945 l 2.12508,-4.10942 -5.75751,3.34446 c -3.9797,2.31178 -6.91229,3.11666 -9.4974,2.60667 l -3.7399,-0.73781 2.97232,-3.1639 c 3.66677,-3.90308 1.98896,-4.05708 -4.05546,-0.37221 -2.5494,1.55421 -7.84476,3.0696 -12,3.43409 l -7.43705,0.65239 4.32583,-2.8986 c 6.18513,-4.14445 21.4188,-9.25265 27.67417,-9.27979 17.62424,-0.0765 22.99419,18.62218 13.20096,45.9669 -2.62636,7.33333 -5.58049,16.03333 -6.56476,19.33333 l -1.78955,6 z M 234.0778,220.91302 c -0.79388,-1.7523 -2.29479,-2.31709 -5.438,-2.04629 -5.17302,0.44568 -8.61718,-1.99851 -7.70914,-5.47088 0.36046,-1.37836 4.06322,-4.60956 8.22836,-7.18043 9.0693,-5.59789 11.38996,-8.01252 14.2274,-14.80347 l 2.15479,-5.15713 -8.08269,7.31443 c -4.4455,4.02293 -10.5068,8.4656 -13.46959,9.87259 -3.22021,1.52924 -5.70016,3.76481 -6.16577,5.55817 -0.4284,1.65 -1.19566,3 -1.70503,3 -1.96467,0 -12.11812,-8.3184 -12.11812,-9.92799 0,-0.93352 3.12305,-4.03161 6.94011,-6.88465 7.24177,-5.41284 15.72656,-15.41799 15.72656,-18.54454 0,-0.99909 -3.01642,1.37288 -6.70315,5.27106 -3.68673,3.89817 -9.38673,8.51122 -12.66667,10.25124 -3.27993,1.74 -5.96352,3.87925 -5.96352,4.7539 0,0.87464 -0.54448,1.92678 -1.20996,2.33806 -1.52789,0.94429 -12.12624,-5.90304 -12.11507,-7.82726 0.004,-0.7864 3.38014,-4.70688 7.50126,-8.71216 8.18928,-7.95909 14.72115,-16.9314 13.33513,-18.31742 -0.48338,-0.48338 -6.64274,4.88498 -13.68747,11.9297 l -12.80858,12.80859 -4.50766,-2.14955 c -7.1779,-3.4229 -6.18092,-7.1316 5.59102,-20.79794 5.74636,-6.6711 8.7632,-11.02192 7,-10.09523 -8.45756,4.44509 -21.06476,18.62344 -21.08572,23.71351 -0.009,2.32466 -0.56576,2.93052 -2.13682,2.32764 -1.16813,-0.44826 -3.56352,-1.17634 -5.3231,-1.61796 -2.6764,-0.67174 -3.06104,-1.37898 -2.3536,-4.32764 0.9946,-4.14556 4.88865,-12.1262 9.42566,-19.31734 1.77875,-2.81928 2.9647,-5.39534 2.63546,-5.72458 -1.40328,-1.40328 -11.55172,12.18978 -14.33883,19.20577 -1.67029,4.20464 -3.11219,7.77099 -3.2042,7.92524 -0.092,0.15424 -1.49111,-0.0657 -3.10908,-0.48884 -2.66753,-0.69759 -2.95569,-1.65593 -3.09112,-10.28045 l -0.14935,-9.51116 -2.00461,8.66666 c -1.10253,4.76667 -2.21649,9.41667 -2.47547,10.33334 -0.25897,0.91666 -1.68969,1.66666 -3.17938,1.66666 -2.32916,0 -2.72163,-0.88702 -2.80223,-6.33333 -0.0705,-4.76528 -0.37741,-5.67311 -1.23961,-3.66667 -0.63026,1.46667 -1.18808,4.88126 -1.23962,7.58798 -0.10746,5.64164 -1.96145,7.55892 -3.97123,4.10673 -1.13603,-1.95136 -1.38529,-1.55109 -1.43552,2.30529 -0.0334,2.56667 -0.83436,7.25308 -1.77985,10.41426 l -1.71906,5.74757 -1.64741,-8.41424 c -1.41497,-7.22707 -1.33835,-9.44248 0.54304,-15.70185 3.11624,-10.36775 17.18969,-24.28234 31.85542,-31.49584 9.82432,-4.83219 11.44535,-5.21656 22,-5.21656 10.89457,0 11.96391,0.27884 24.38527,6.3587 13.04525,6.38524 40.20239,25.72327 48.94844,34.85516 l 4.60615,4.80936 -1.54584,7.36983 c -0.85022,4.0534 -1.17739,8.39818 -0.72704,9.65506 0.45033,1.25688 0.35646,1.86849 -0.2086,1.35916 -1.84063,-1.6591 -7.67346,6.62272 -6.73867,9.56798 0.87515,2.75735 -1.16357,3.77744 -2.67189,1.33691 -1.43803,-2.32676 -8.47563,2.83608 -9.00194,6.60388 -0.41394,2.96349 -0.62294,3.09588 -1.57386,0.99697 z m 84.65881,-0.95886 c -0.0465,-2.25148 -1.32906,-4.12299 -3.84293,-5.60796 -3.53365,-2.08738 -3.91984,-2.08447 -6.08773,0.0459 -2.18952,2.15158 -2.26644,2.07755 -1.42178,-1.36822 0.68175,-2.78118 0.1068,-4.57714 -2.43064,-7.59274 -1.82798,-2.17244 -3.60496,-3.66852 -3.94885,-3.32464 -0.34388,0.34388 -0.62063,-1.03938 -0.615,-3.07393 0.005,-2.03455 -0.44773,-6.45035 -1.00751,-9.8129 l -1.01776,-6.11372 8.86548,-7.83184 c 15.24347,-13.4662 28.92571,-23.00474 43.41616,-30.26748 13.6141,-6.82349 14.27849,-7.00657 25.42562,-7.00657 10.75963,0 12.12423,0.33572 22.74888,5.5966 15.88432,7.86525 27.68168,19.96239 31.40931,32.20747 1.56157,5.12965 1.60186,7.64397 0.23413,14.61018 l -1.65203,8.41425 -1.71906,-5.74758 c -0.94548,-3.16117 -1.74642,-7.84759 -1.77986,-10.41425 -0.0503,-3.85639 -0.29948,-4.25666 -1.43552,-2.3053 -2.00977,3.45219 -3.86378,1.53491 -3.97122,-4.10673 -0.0515,-2.70673 -0.60936,-6.12132 -1.23962,-7.58799 -0.85908,-1.99918 -1.16936,-1.05818 -1.23961,3.7594 -0.0851,5.83454 -0.36317,6.38686 -3.02089,6 -2.48754,-0.36208 -3.18048,-1.80322 -4.61383,-9.59545 -0.92767,-5.04316 -2.01044,-9.49316 -2.40616,-9.88889 -0.39573,-0.39572 -0.71951,3.5805 -0.71951,8.83605 0,5.25556 -0.55093,9.55556 -1.22428,9.55556 -0.67336,0 -2.17336,0.36419 -3.33333,0.80932 -1.28247,0.49213 -2.11416,0.10027 -2.12208,-1 -0.0397,-5.51797 -14.76471,-28.14271 -16.91608,-25.99132 -0.30533,0.30532 1.7854,4.37913 4.64607,9.05291 4.81208,7.862 9.17576,18.13092 8.08258,19.02049 -1.5351,1.2492 -9.15981,3.12823 -9.58573,2.36229 -0.28148,-0.5062 -0.87481,-2.44538 -1.31851,-4.3093 -0.93236,-3.91679 -14.33576,-17.90847 -19.92361,-20.79807 -2.86904,-1.48364 -1.37191,0.84785 6.15709,9.58847 11.90562,13.82154 12.91819,16.8613 6.86322,20.60349 -2.36872,1.46395 -4.57055,2.66172 -4.89298,2.66172 -0.32241,0 -6.39389,-5.80769 -13.49218,-12.90599 -7.0983,-7.09829 -13.25699,-12.55497 -13.68601,-12.12597 -1.35022,1.35023 5.40087,10.74119 13.20269,18.36529 4.12734,4.03334 7.51301,8.0036 7.5237,8.82282 0.0107,0.81922 -2.45814,3.12908 -5.48632,5.13302 -4.38664,2.90295 -5.73759,3.27774 -6.64625,1.84386 -0.62727,-0.98983 -1.14968,-2.10072 -1.16091,-2.46866 -0.0107,-0.36792 -2.75147,-2.11777 -6.08941,-3.88854 -3.33796,-1.77079 -9.03796,-6.46811 -12.66667,-10.4385 -3.62872,-3.9704 -6.59767,-6.31718 -6.59767,-5.2151 0,3.29229 8.30559,13.18501 15.72656,18.7318 3.81706,2.85304 6.94011,5.95113 6.94011,6.88465 0,1.67708 -10.1912,9.92799 -12.26267,9.92799 -0.58886,0 -1.07066,-0.90745 -1.07066,-2.01656 0,-1.10911 -3.44367,-4.21945 -7.65259,-6.91187 -4.20893,-2.69241 -10.57847,-7.63211 -14.15452,-10.97709 l -6.50193,-6.08179 2.18304,5.22472 c 2.89956,6.93963 3.74629,7.84484 13.28684,14.20438 9.01545,6.00952 10.82745,8.78014 7.91602,12.10393 -1.46365,1.67093 -2.87233,1.9444 -5.75602,1.11736 -3.13334,-0.89863 -4.17946,-0.57801 -5.83287,1.78761 l -2.01477,2.88264 -0.0699,-3.37918 z"
       id="path3783"
       inkscape:connector-curvature="0" />
  </g>
</svg>
